<svg width="1268" height="156" viewBox="0 0 1268 156" fill="none" xmlns="http://www.w3.org/2000/svg">
<path d="M32.0045 2.29208V153H0.140935V2.29208H32.0045ZM184.276 2.29208V153H156.754L91.1875 58.1453H90.0837V153H58.2201V2.29208H86.1835L151.235 97.0732H152.56V2.29208H184.276ZM204.862 28.5629V2.29208H328.637V28.5629H282.498V153H251.002V28.5629H204.862ZM349.021 153V2.29208H450.572V28.5629H380.884V64.4738H445.347V90.7447H380.884V126.729H450.867V153H349.021ZM475.905 153V2.29208H535.364C546.745 2.29208 556.459 4.32801 564.505 8.39987C572.599 12.4227 578.756 18.138 582.975 25.5458C587.243 32.9046 589.377 41.5635 589.377 51.5224C589.377 61.5303 587.219 70.1401 582.902 77.3517C578.584 84.5142 572.329 90.0088 564.137 93.8354C555.993 97.6619 546.132 99.5752 534.554 99.5752H494.743V73.9666H529.403C535.486 73.9666 540.539 73.1327 544.562 71.4647C548.585 69.7967 551.578 67.2947 553.54 63.9587C555.551 60.6227 556.557 56.4773 556.557 51.5224C556.557 46.5184 555.551 42.2993 553.54 38.8652C551.578 35.4311 548.561 32.831 544.489 31.0649C540.466 29.2498 535.388 28.3422 529.256 28.3422H507.768V153H475.905ZM557.293 84.4161L594.749 153H559.574L522.927 84.4161H557.293ZM611.895 153V2.29208H713.446V28.5629H643.759V64.4738H708.222V90.7447H643.759V126.729H713.741V153H611.895ZM820.535 45.6353C819.946 39.6992 817.42 35.0877 812.956 31.8008C808.491 28.5139 802.432 26.8704 794.779 26.8704C789.579 26.8704 785.188 27.6063 781.607 29.0781C778.026 30.5008 775.279 32.4876 773.365 35.0387C771.501 37.5897 770.569 40.4842 770.569 43.722C770.471 46.4203 771.035 48.7751 772.261 50.7865C773.537 52.7979 775.279 54.5395 777.486 56.0112C779.694 57.4339 782.245 58.6849 785.139 59.7642C788.034 60.7944 791.124 61.6775 794.411 62.4134L807.952 65.6512C814.525 67.123 820.56 69.0853 826.054 71.5382C831.549 73.9912 836.307 77.0083 840.33 80.5895C844.353 84.1708 847.468 88.3899 849.676 93.2467C851.933 98.1035 853.085 103.672 853.135 109.951C853.085 119.174 850.731 127.171 846.07 133.941C841.459 140.662 834.787 145.887 826.054 149.615C817.371 153.294 806.897 155.134 794.632 155.134C782.466 155.134 771.869 153.27 762.842 149.541C753.865 145.813 746.849 140.294 741.796 132.984C736.792 125.625 734.167 116.525 733.922 105.683H764.756C765.099 110.736 766.546 114.955 769.097 118.34C771.697 121.676 775.156 124.203 779.473 125.92C783.839 127.588 788.77 128.422 794.264 128.422C799.661 128.422 804.346 127.637 808.32 126.067C812.342 124.497 815.458 122.314 817.665 119.518C819.873 116.721 820.977 113.508 820.977 109.878C820.977 106.492 819.971 103.647 817.96 101.341C815.997 99.0356 813.103 97.0732 809.276 95.4543C805.499 93.8354 800.863 92.3636 795.368 91.039L778.958 86.9181C766.252 83.8274 756.219 78.9951 748.861 72.4213C741.502 65.8475 737.847 56.9924 737.896 45.8561C737.847 36.7312 740.275 28.7592 745.181 21.94C750.136 15.1209 756.931 9.79804 765.565 5.97147C774.199 2.1449 784.011 0.231616 795 0.231616C806.185 0.231616 815.948 2.1449 824.288 5.97147C832.677 9.79804 839.202 15.1209 843.862 21.94C848.523 28.7592 850.927 36.6576 851.074 45.6353H820.535ZM868.827 28.5629V2.29208H992.602V28.5629H946.462V153H914.967V28.5629H868.827ZM1012.99 153V2.29208H1114.54V28.5629H1044.85V64.4738H1109.31V90.7447H1044.85V126.729H1114.83V153H1012.99ZM1193.29 153H1139.87V2.29208H1193.74C1208.9 2.29208 1221.94 5.30918 1232.88 11.3434C1243.82 17.3285 1252.24 25.9383 1258.13 37.1727C1264.06 48.4071 1267.03 61.8492 1267.03 77.4989C1267.03 93.1976 1264.06 106.689 1258.13 117.972C1252.24 129.256 1243.78 137.914 1232.74 143.949C1221.75 149.983 1208.6 153 1193.29 153ZM1171.73 125.699H1191.97C1201.39 125.699 1209.31 124.031 1215.74 120.695C1222.21 117.31 1227.07 112.085 1230.31 105.021C1233.6 97.9072 1235.24 88.7333 1235.24 77.4989C1235.24 66.3626 1233.6 57.2622 1230.31 50.1978C1227.07 43.1333 1222.24 37.9331 1215.81 34.5971C1209.39 31.2612 1201.46 29.5932 1192.04 29.5932H1171.73V125.699Z" fill="#2700C5"/>
</svg>
