<svg width="36" height="35" viewBox="0 0 36 35" fill="none" xmlns="http://www.w3.org/2000/svg">
<path d="M-6.32204e-07 14.4631C-6.24301e-07 14.2824 0.146549 14.1358 0.327327 14.1358L11.5737 14.1358C11.8147 14.1358 11.973 13.8842 11.8688 13.6669L5.53745 0.468904C5.43321 0.251617 5.59158 -1.32919e-06 5.83257 -1.31866e-06L12.484 -1.02792e-06C12.6086 -1.02247e-06 12.7224 0.0707698 12.7775 0.182542L17.7064 10.1764C17.8265 10.4198 18.1735 10.4198 18.2936 10.1764L23.2225 0.182543C23.2776 0.0707709 23.3914 -5.51139e-07 23.516 -5.45691e-07L30.1674 -2.5495e-07C30.4084 -2.44415e-07 30.5668 0.251619 30.4626 0.468906L24.1312 13.6669C24.027 13.8842 24.1853 14.1358 24.4263 14.1358L35.6727 14.1358C35.8534 14.1358 36 14.2824 36 14.4631L36 20.5369C36 20.7176 35.8534 20.8642 35.6727 20.8642L24.4263 20.8642C24.1853 20.8642 24.027 21.1158 24.1312 21.3331L30.4626 34.5311C30.5668 34.7484 30.4084 35 30.1674 35L23.5158 35C23.3913 35 23.2776 34.9294 23.2224 34.8178L18.2934 24.8525C18.1732 24.6095 17.8268 24.6095 17.7066 24.8525L12.7776 34.8178C12.7224 34.9294 12.6087 35 12.4842 35L5.83257 35C5.59158 35 5.43321 34.7484 5.53745 34.5311L11.8688 21.3331C11.973 21.1158 11.8147 20.8642 11.5737 20.8642L0.327327 20.8642C0.146548 20.8642 -9.05597e-07 20.7176 -8.97695e-07 20.5369L-6.32204e-07 14.4631Z" fill="#FFFFFF"/>
</svg>
