<svg width="1279" height="200" viewBox="0 0 1279 200" fill="none" xmlns="http://www.w3.org/2000/svg">
<path d="M0.390381 72.0286V45.6449H124.697V72.0286H78.359V197H46.7281V72.0286H0.390381Z" fill="#2700C5"/>
<path d="M177.168 45.6449V197H145.168V45.6449H177.168Z" fill="#2700C5"/>
<path d="M203.497 45.6449H242.961L284.643 147.337H286.417L328.099 45.6449H367.563V197H336.524V98.4861H335.267L296.098 196.261H274.962L235.793 98.1166H234.536V197H203.497V45.6449Z" fill="#2700C5"/>
<path d="M442.095 197V45.6449H502.696C513.831 45.6449 523.119 47.2954 530.558 50.5964C537.998 53.8975 543.59 58.4795 547.334 64.3426C551.079 70.1563 552.951 76.857 552.951 84.4444C552.951 90.3567 551.769 95.5546 549.404 100.038C547.039 104.472 543.787 108.118 539.648 110.976C535.559 113.784 530.878 115.78 525.607 116.962V118.44C531.371 118.687 536.766 120.312 541.792 123.318C546.866 126.323 550.98 130.536 554.133 135.955C557.287 141.326 558.863 147.731 558.863 155.17C558.863 163.201 556.868 170.37 552.877 176.676C548.936 182.934 543.097 187.885 535.362 191.531C527.627 195.177 518.093 197 506.761 197H442.095ZM474.096 170.838H500.184C509.101 170.838 515.605 169.138 519.694 165.739C523.784 162.29 525.828 157.708 525.828 151.993C525.828 147.805 524.818 144.109 522.798 140.907C520.778 137.704 517.896 135.192 514.151 133.369C510.456 131.546 506.047 130.634 500.923 130.634H474.096V170.838ZM474.096 108.98H497.819C502.204 108.98 506.096 108.217 509.496 106.689C512.944 105.113 515.654 102.896 517.625 100.038C519.645 97.1805 520.655 93.7563 520.655 89.7655C520.655 84.2966 518.709 79.887 514.817 76.5367C510.974 73.1864 505.505 71.5112 498.41 71.5112H474.096V108.98Z" fill="#2700C5"/>
<path d="M718.773 121.322C718.773 137.828 715.644 151.869 709.387 163.448C703.179 175.026 694.705 183.87 683.964 189.979C673.273 196.039 661.251 199.069 647.899 199.069C634.449 199.069 622.378 196.015 611.686 189.905C600.995 183.796 592.545 174.952 586.337 163.374C580.129 151.795 577.025 137.778 577.025 121.322C577.025 104.817 580.129 90.7755 586.337 79.1972C592.545 67.619 600.995 58.7998 611.686 52.7397C622.378 46.6303 634.449 43.5756 647.899 43.5756C661.251 43.5756 673.273 46.6303 683.964 52.7397C694.705 58.7998 703.179 67.619 709.387 79.1972C715.644 90.7755 718.773 104.817 718.773 121.322ZM686.329 121.322C686.329 110.631 684.728 101.615 681.525 94.2736C678.372 86.9325 673.913 81.3651 668.149 77.5714C662.384 73.7776 655.634 71.8808 647.899 71.8808C640.164 71.8808 633.414 73.7776 627.649 77.5714C621.885 81.3651 617.401 86.9325 614.199 94.2736C611.046 101.615 609.469 110.631 609.469 121.322C609.469 132.014 611.046 141.03 614.199 148.371C617.401 155.712 621.885 161.28 627.649 165.074C633.414 168.867 640.164 170.764 647.899 170.764C655.634 170.764 662.384 168.867 668.149 165.074C673.913 161.28 678.372 155.712 681.525 148.371C684.728 141.03 686.329 132.014 686.329 121.322ZM625.358 30.1251C621.121 30.1251 617.475 28.647 614.421 25.6908C611.366 22.6854 609.839 19.138 609.839 15.0487C609.839 10.8608 611.366 7.31342 614.421 4.40653C617.475 1.49965 621.121 0.0462036 625.358 0.0462036C629.645 0.0462036 633.266 1.49965 636.222 4.40653C639.228 7.31342 625.358 10.8608 625.358 15.0487C625.358 19.138 639.228 22.6854 636.222 25.6908C633.266 28.647 629.645 30.1251 625.358 30.1251ZM670.588 30.1251C666.35 30.1251 662.704 28.647 659.65 25.6908C656.595 22.6854 655.068 19.138 655.068 15.0487C655.068 10.8608 656.595 7.31342 659.65 4.40653C662.704 1.49965 666.35 0.0462036 670.588 0.0462036C674.874 0.0462036 678.495 1.49965 681.451 4.40653C684.457 7.31342 670.588 10.8608 670.588 15.0487C670.588 19.138 684.457 22.6854 681.451 25.6908C678.495 28.647 674.874 30.1251 670.588 30.1251Z" fill="#2700C5"/>
<path d="M742.478 197V45.6449H802.192C813.622 45.6449 823.378 47.6896 831.458 51.7789C839.587 55.819 845.77 61.5589 850.008 68.9985C854.294 76.3889 856.437 85.0849 856.437 95.0866C856.437 105.137 854.269 113.784 849.934 121.027C845.598 128.22 839.316 133.738 831.088 137.581C822.91 141.424 813.006 143.346 801.379 143.346H761.397V117.627H796.206C802.315 117.627 807.39 116.79 811.43 115.115C815.47 113.439 818.475 110.927 820.446 107.576C822.466 104.226 823.476 100.063 823.476 95.0866C823.476 90.0611 822.466 85.824 820.446 82.3751C818.475 78.9263 815.445 76.315 811.356 74.5413C807.316 72.7183 802.216 71.8069 796.058 71.8069H774.478V197H742.478ZM824.215 128.122L861.832 197H826.506L789.702 128.122H824.215Z" fill="#2700C5"/>
<path d="M1005.65 45.6449V197H978.009L912.161 101.738H911.052V197H879.052V45.6449H907.135L972.466 140.833H973.797V45.6449H1005.65Z" fill="#2700C5"/>
<path d="M1032.09 197V45.6449H1134.08V72.0286H1064.09V108.094H1128.83V134.477H1064.09V170.616H1134.37V197H1032.09Z" fill="#2700C5"/>
<path d="M1159.52 197V45.6449H1219.23C1230.66 45.6449 1240.42 47.6896 1248.5 51.7789C1256.63 55.819 1262.81 61.5589 1267.05 68.9985C1271.33 76.3889 1273.48 85.0849 1273.48 95.0866C1273.48 105.137 1271.31 113.784 1266.97 121.027C1262.64 128.22 1256.36 133.738 1248.13 137.581C1239.95 141.424 1230.05 143.346 1218.42 143.346H1178.44V117.627H1213.24C1219.35 117.627 1224.43 116.79 1228.47 115.115C1232.51 113.439 1235.51 110.927 1237.49 107.576C1239.51 104.226 1240.52 100.063 1240.52 95.0866C1240.52 90.0611 1239.51 85.824 1237.49 82.3751C1235.51 78.9263 1232.48 76.315 1228.4 74.5413C1224.36 72.7183 1219.26 71.8069 1213.1 71.8069H1191.52V197H1159.52ZM1241.25 128.122L1278.87 197H1243.55L1206.74 128.122H1241.25Z" fill="#2700C5"/>
</svg>
